<?xml version="1.0" encoding="UTF-8"?>
<svg xmlns="http://www.w3.org/2000/svg" xmlns:xlink="http://www.w3.org/1999/xlink" viewBox="0 0 211.15 49.27">
  <defs>
    <style>
      .cls-1 {
        fill: #9d9e9e;
      }

      .cls-2 {
        fill: url(#linear-gradient-2);
      }

      .cls-3 {
        fill: url(#linear-gradient-4);
      }

      .cls-3, .cls-4, .cls-5 {
        mix-blend-mode: screen;
      }

      .cls-6 {
        isolation: isolate;
      }

      .cls-4 {
        fill: url(#linear-gradient-3);
      }

      .cls-5 {
        fill: url(#linear-gradient);
      }
    </style>
    <linearGradient id="linear-gradient" x1="145.06" y1="-26.36" x2="64.91" y2="77.16" gradientUnits="userSpaceOnUse">
      <stop offset="0" stop-color="#f4f4f4"/>
      <stop offset=".2" stop-color="#010101"/>
      <stop offset=".24" stop-color="#040404"/>
      <stop offset=".28" stop-color="#101010"/>
      <stop offset=".31" stop-color="#232323"/>
      <stop offset=".35" stop-color="#3f3f3f"/>
      <stop offset=".39" stop-color="#626262"/>
      <stop offset=".42" stop-color="#8d8d8d"/>
      <stop offset=".46" stop-color="#bfbfbf"/>
      <stop offset=".49" stop-color="#f4f4f4"/>
      <stop offset=".59" stop-color="#f4f4f4"/>
      <stop offset=".84" stop-color="#010101"/>
      <stop offset=".85" stop-color="#060606"/>
      <stop offset=".92" stop-color="#848484"/>
      <stop offset=".98" stop-color="#d4d4d4"/>
      <stop offset="1" stop-color="#f4f4f4"/>
    </linearGradient>
    <linearGradient id="linear-gradient-2" x1="94.52" y1="-12.39" x2="120.59" y2="74.92" gradientUnits="userSpaceOnUse">
      <stop offset="0" stop-color="#ffb41d"/>
      <stop offset=".39" stop-color="#fa9315"/>
      <stop offset="1" stop-color="#f25807"/>
    </linearGradient>
    <linearGradient id="linear-gradient-3" x1="146.04" y1="-27.63" x2="63.89" y2="78.47" xlink:href="#linear-gradient"/>
    <linearGradient id="linear-gradient-4" x1="105.57" y1="-1.48" x2="105.57" y2="36.96" gradientUnits="userSpaceOnUse">
      <stop offset="0" stop-color="#000"/>
      <stop offset=".17" stop-color="#030303"/>
      <stop offset=".32" stop-color="#0f0f0f"/>
      <stop offset=".47" stop-color="#222"/>
      <stop offset=".62" stop-color="#3c3c3c"/>
      <stop offset=".77" stop-color="#5f5f5f"/>
      <stop offset=".91" stop-color="#888"/>
      <stop offset="1" stop-color="#a8a8a8"/>
    </linearGradient>
  </defs>
  <g class="cls-6">
    <g id="Capa_2" data-name="Capa 2">
      <g id="Capa_1-2" data-name="Capa 1">
        <g>
          <rect class="cls-1" width="211.15" height="49.27" rx="23.25" ry="23.25"/>
          <path class="cls-5" d="M24.64.43C11.29.43.43,11.29.43,24.64s10.86,24.2,24.2,24.2h161.87c13.35,0,24.2-10.86,24.2-24.2S199.86.43,186.51.43H24.64Z"/>
          <path class="cls-2" d="M25.13,43.42c-10.36,0-18.78-8.43-18.78-18.78S14.77,5.85,25.13,5.85h160.89c10.36,0,18.78,8.43,18.78,18.78s-8.43,18.78-18.78,18.78H25.13Z"/>
          <path class="cls-4" d="M186.02,6.29c10.12,0,18.35,8.23,18.35,18.35s-8.23,18.35-18.35,18.35H25.13c-10.12,0-18.35-8.23-18.35-18.35S15.01,6.29,25.13,6.29h160.89M186.02,5.42H25.13C14.52,5.42,5.91,14.02,5.91,24.64h0c0,10.61,8.6,19.22,19.22,19.22h160.89c10.61,0,19.22-8.6,19.22-19.22h0c0-10.61-8.6-19.22-19.22-19.22h0Z"/>
          <path class="cls-3" d="M186.51,0H24.64C11.03,0,0,11.03,0,24.64H0s211.15,0,211.15,0h0c0-13.61-11.03-24.64-24.64-24.64Z"/>
        </g>
      </g>
    </g>
  </g>
</svg>